<svg width="209" height="116" viewBox="0 0 209 116" fill="none" xmlns="http://www.w3.org/2000/svg">
<rect width="21" height="5" transform="matrix(0.866052 0.499954 -0.500046 0.865999 12.5003 61.5)" fill="#D9D9D9"/>
<rect width="21" height="5" transform="matrix(0.866052 -0.499954 0.500046 0.865999 177.199 71.1955)" fill="#D9D9D9"/>
<rect x="209" y="115.499" width="21" height="5" transform="rotate(-180 209 115.499)" fill="#D9D9D9"/>
<rect x="21.0001" y="115.499" width="21" height="5" transform="rotate(-180 21.0001 115.499)" fill="#D9D9D9"/>
<rect width="21" height="5" transform="matrix(0.500046 0.865999 -0.866052 0.499954 48.3303 23.5)" fill="#D9D9D9"/>
<rect width="10" height="3" transform="matrix(0.38107 0.924546 -0.924576 0.380997 68.7738 28.5)" fill="#D9D9D9"/>
<rect width="10" height="3" transform="matrix(0.38107 -0.924546 0.924516 0.381143 135 36.7454)" fill="#D9D9D9"/>
<rect width="10" height="3" transform="matrix(0.161776 0.986828 -0.986834 0.161737 89.5391 22.5)" fill="#D9D9D9"/>
<rect width="10" height="3" transform="matrix(0.161776 -0.986828 0.986821 0.161815 118 32.3683)" fill="#D9D9D9"/>
<rect width="21" height="5" transform="matrix(0.554111 -0.832443 0.832384 0.5542 150 41.5)" fill="#D9D9D9"/>
<path d="M40.8904 59.0626L30.7444 56.8506L37.888 49.123L40.8904 59.0626Z" fill="#D9D9D9"/>
<path d="M105.002 28.0386L98.0145 7.38357L111.99 7.38357L105.002 28.0386Z" fill="#D9D9D9"/>
<path d="M166.215 57.1576L169.011 47.1567L176.312 54.7357L166.215 57.1576Z" fill="#D9D9D9"/>
</svg>
