<svg width="200" height="185" viewBox="0 0 200 185" fill="none" xmlns="http://www.w3.org/2000/svg">
<rect y="93" width="1" height="200" transform="rotate(-90 0 93)" fill="white"/>
<rect x="89.5" y="1" width="1" height="20" transform="rotate(-90 89.5 1)" fill="white"/>
<rect x="79.5" y="27" width="1" height="40" transform="rotate(-90 79.5 27)" fill="white"/>
<rect x="31" y="60.5" width="1" height="56" transform="rotate(-90 31 60.5)" fill="white"/>
<path d="M93.0753 61.8636V60.9091L96.3935 56.2045H97.2344V57.5682H96.7116L94.348 60.8409V60.8864H98.8935V61.8636H93.0753ZM96.7571 63.1818V61.5682V61.1591V56.2045H97.9389V63.1818H96.7571ZM102.991 63.3182C102.082 63.3182 101.37 62.9981 100.855 62.358C100.34 61.714 100.082 60.8295 100.082 59.7045C100.082 58.5795 100.34 57.7008 100.855 57.0682C101.37 56.4318 102.082 56.1136 102.991 56.1136C103.889 56.1136 104.598 56.428 105.116 57.0568C105.639 57.6856 105.901 58.5682 105.901 59.7045C105.901 60.8409 105.639 61.7273 105.116 62.3636C104.598 63 103.889 63.3182 102.991 63.3182ZM102.991 62.2955C103.491 62.2955 103.893 62.0777 104.196 61.642C104.499 61.2027 104.651 60.5568 104.651 59.7045C104.651 58.8523 104.499 58.2083 104.196 57.7727C103.893 57.3333 103.491 57.1136 102.991 57.1136C102.491 57.1136 102.09 57.3333 101.787 57.7727C101.484 58.2083 101.332 58.8523 101.332 59.7045C101.332 60.5455 101.48 61.1875 101.776 61.6307C102.075 62.0739 102.48 62.2955 102.991 62.2955Z" fill="white"/>
<rect x="112" y="60.5" width="1" height="56" transform="rotate(-90 112 60.5)" fill="white"/>
<rect x="48" y="125.5" width="1" height="40" transform="rotate(-90 48 125.5)" fill="white"/>
<path d="M94.4048 128.182V127.295L97.0639 124.932C97.3291 124.697 97.5507 124.487 97.7287 124.301C97.9067 124.116 98.0412 123.936 98.1321 123.761C98.223 123.587 98.2685 123.402 98.2685 123.205C98.2685 122.864 98.1378 122.593 97.8764 122.392C97.6151 122.191 97.2912 122.091 96.9048 122.091C96.4957 122.091 96.1662 122.201 95.9162 122.42C95.6662 122.636 95.5412 122.92 95.5412 123.273H94.3594C94.3594 122.625 94.5999 122.104 95.081 121.71C95.562 121.312 96.1776 121.114 96.9276 121.114C97.4276 121.114 97.867 121.205 98.2457 121.386C98.6245 121.564 98.92 121.811 99.1321 122.125C99.3442 122.436 99.4503 122.788 99.4503 123.182C99.4503 123.492 99.3878 123.78 99.2628 124.045C99.1378 124.311 98.9427 124.585 98.6776 124.869C98.4124 125.153 98.0715 125.477 97.6548 125.841L96.1776 127.136V127.182H99.6548V128.182H94.4048ZM103.866 128.318C102.957 128.318 102.245 127.998 101.73 127.358C101.215 126.714 100.957 125.83 100.957 124.705C100.957 123.58 101.215 122.701 101.73 122.068C102.245 121.432 102.957 121.114 103.866 121.114C104.764 121.114 105.473 121.428 105.991 122.057C106.514 122.686 106.776 123.568 106.776 124.705C106.776 125.841 106.514 126.727 105.991 127.364C105.473 128 104.764 128.318 103.866 128.318ZM103.866 127.295C104.366 127.295 104.768 127.078 105.071 126.642C105.374 126.203 105.526 125.557 105.526 124.705C105.526 123.852 105.374 123.208 105.071 122.773C104.768 122.333 104.366 122.114 103.866 122.114C103.366 122.114 102.965 122.333 102.662 122.773C102.359 123.208 102.207 123.852 102.207 124.705C102.207 125.545 102.355 126.187 102.651 126.631C102.95 127.074 103.355 127.295 103.866 127.295Z" fill="white"/>
<rect x="113" y="125.5" width="1" height="40" transform="rotate(-90 113 125.5)" fill="white"/>
<rect x="80.5" y="159" width="1" height="40" transform="rotate(-90 80.5 159)" fill="white"/>
<rect x="90.5" y="185" width="1" height="20" transform="rotate(-90 90.5 185)" fill="white"/>
</svg>
