<svg width="24" height="24" viewBox="0 0 24 24" fill="none" xmlns="http://www.w3.org/2000/svg">
<g filter="url(#filter0_i_57_630)">
<path fill-rule="evenodd" clip-rule="evenodd" d="M10.9996 0C9.67409 0 8.59958 1.07452 8.59958 2.4V12.5333C8.59958 13.8588 9.67409 14.9333 10.9996 14.9333C12.3251 14.9333 13.3996 13.8588 13.3996 12.5333V2.4C13.3996 1.07452 12.3251 0 10.9996 0ZM3.30704 3.72779C4.14743 2.84465 5.54608 3.07802 6.26058 4.06578C6.97508 5.05354 6.71906 6.42038 5.97784 7.38825C5.46006 8.06435 5.05663 8.82698 4.78912 9.64653C4.29148 11.1712 4.28989 12.8143 4.78458 14.3399C5.27927 15.8655 6.24478 17.195 7.54241 18.1375C8.84004 19.08 10.403 19.5869 12.0068 19.5855C13.6106 19.584 15.1726 19.0743 16.4686 18.1295C17.7645 17.1847 18.7276 15.8534 19.2196 14.3269C19.7116 12.8005 19.707 11.1573 19.2066 9.63361C18.9377 8.81454 18.5329 8.05263 18.0139 7.37746C17.2709 6.41091 17.0124 5.04454 17.7252 4.0555C18.4379 3.06646 19.8361 2.83059 20.6781 3.71221C21.9066 4.99852 22.8403 6.54888 23.401 8.25623C24.1926 10.6668 24.1998 13.2662 23.4215 15.6811C22.6432 18.096 21.1195 20.2021 19.0694 21.6968C17.0192 23.1915 14.548 23.9979 12.0108 24.0002C9.47355 24.0025 7.00091 23.2005 4.94804 21.7095C2.89517 20.2184 1.36772 18.1151 0.585116 15.7016C-0.197488 13.2881 -0.194971 10.6887 0.592306 8.27668C1.14992 6.56833 2.08089 5.01629 3.30704 3.72779Z" fill="#FF4C4C"/>
</g>
<defs>
<filter id="filter0_i_57_630" x="0" y="0" width="25.5251" height="26.2876" filterUnits="userSpaceOnUse" color-interpolation-filters="sRGB">
<feFlood flood-opacity="0" result="BackgroundImageFix"/>
<feBlend mode="normal" in="SourceGraphic" in2="BackgroundImageFix" result="shape"/>
<feColorMatrix in="SourceAlpha" type="matrix" values="0 0 0 0 0 0 0 0 0 0 0 0 0 0 0 0 0 0 127 0" result="hardAlpha"/>
<feOffset dx="1.52507" dy="2.2876"/>
<feGaussianBlur stdDeviation="3.05013"/>
<feComposite in2="hardAlpha" operator="arithmetic" k2="-1" k3="1"/>
<feColorMatrix type="matrix" values="0 0 0 0 0 0 0 0 0 0 0 0 0 0 0 0 0 0 0.5 0"/>
<feBlend mode="normal" in2="shape" result="effect1_innerShadow_57_630"/>
</filter>
</defs>
</svg>
